<?xml version="1.0" encoding="UTF-8"?> <svg xmlns="http://www.w3.org/2000/svg" xmlns:svg="http://www.w3.org/2000/svg" xmlns:rdf="http://www.w3.org/1999/02/22-rdf-syntax-ns#" xmlns:dc="http://purl.org/dc/elements/1.1/" xmlns:cc="http://creativecommons.org/ns#" id="svg3536" version="1.1" viewBox="0 0 217.3 36.8"><defs><style> .cls-1 { fill: #fff; stroke-width: 0px; } </style></defs><g id="layer1"><g id="g30"><path id="path32" class="cls-1" d="M96.6,17.2c0-2,0-4.1,0-6.1-1.7,0-3.5,0-5.2,0,0-2.2,0-4.4,0-6.6-2.3,0-4.6,0-6.9,0v6.6h-2.9c0,2,0,4.1,0,6.1h2.9s0,0,0,0c0,1.9,0,3.7,0,5.6h0c0,.2,0,.3,0,.5s0,.2,0,.3h0c0,1.1,0,2.2,0,3.2,0,2.9,1.1,6.1,3.6,7.8,2.2,1.6,4.9,1.8,7.5,1.8-2.1-2.2-3.4-5.5-3.9-8.1h0c0,0,0-.2,0-.2,0-.6-.2-1.5-.1-2.5,0-.2,0-.4,0-.6,0-.5,0-1.1,0-1.6,0-2.1,0-4.2,0-6.3,1.7,0,3.5,0,5.2,0"></path></g><g id="g34"><path id="path36" class="cls-1" d="M80.3,6.4c0-2,0-4.1,0-6.1-3.4-.6-7.4-.3-10.1,2-2.5,2.2-2.9,5.7-2.8,8.8h-3c0,2,0,4.1,0,6.1h2.5c.2,0,.3,0,.5,0h0s0,0,0,0v3.3h0c0,5,0,10,0,15h3.2c1.3,0,2.5,0,3.8,0,0-5.1,0-10.1,0-15.2h0v-3.1h4.7c0-2,0-4.1,0-6.1h-4.7c0-1.4,0-3,1-4,1.4-1.1,3.3-.8,4.9-.7"></path></g><g id="g38"><path id="path40" class="cls-1" d="M54.8,35.6h3.1c.6,0,1.2,0,1.8,0h2c0-5.2,0-10.5,0-15.7,0-3.1-1.2-6.5-4.1-7.9-4.2-2.1-9.1-1.6-13.6-.9,0,2.2,0,4.4,0,6.7,2.9-.6,6-1.3,8.9-.2,1.3.5,1.8,1.9,2,3.1-2-.3-4-.7-6-.3-2.4.3-4.7,1.5-6.1,3.5-2.2,3.2-1.6,8.2,1.7,10.5,3,2.3,7.4,2.1,10.5,0,0,.3,0,1,0,1.3M54.5,30.3c-1.8.5-4,1.2-5.6,0-1.5-1.1-1.3-3.6.3-4.4,1.7-.9,3.6-.6,5.3-.2.2,1.6.1,3.2,0,4.7"></path></g><g id="g42"><path id="path44" class="cls-1" d="M18.8,2.4c2.8,0,5.6,0,8.4,0-4.1,5.5-8.1,11.1-12.3,16.6,3.7,5.5,7.3,11,11,16.5-2.9,0-5.8,0-8.7,0-3.2-4.9-6.5-9.8-9.7-14.8,0,4.9,0,9.8,0,14.8-2.5,0-5,0-7.5,0C0,24.5,0,13.5,0,2.4c2.5,0,5,0,7.5,0,0,5.2,0,10.4,0,15.6,3.7-5.2,7.5-10.4,11.3-15.6"></path></g><g id="g46"><path id="path48" class="cls-1" d="M27.7,11.2c2.4,0,4.7,0,7.1,0,0,1.6,0,3.1,0,4.7,1.1-2.6,3.6-4.3,6.4-4.7,0,2.3,0,4.6,0,6.9-3,.4-6.1,2.6-6.2,5.9,0,3.9,0,7.7,0,11.6-2.4,0-4.8,0-7.2,0,0-8.1,0-16.2,0-24.4"></path></g><g id="g50"><path id="path52" class="cls-1" d="M153.5,30.6c-1,.4-1.2.6-2.4,1-1.2.4-2.6.4-3.8,0-3.8-1.6-1.4-7.3-1.4-7.3,15.4-3.8,13.2-12.1,9.1-12.5-2.6,0-11.9.4-16.2,11.1-.6,1.6-4.7,12.9,4.5,13.6,2,0,4.2-.2,6.1-1.2,1.8-1,3.2-2.2,4.3-3.8,1-1.8-.4-1-.4-1M151.4,14.8c1.2.4-1.8,6.3-1.8,6.3-1.2.4-2.4.8-3.2.8.4-.8,2.6-8.3,4.9-7.1"></path></g><g id="g54"><path id="path56" class="cls-1" d="M189.5,32.8c-.2-.2-.6-.2-.8-.4-1.2-.8-.2-3,0-4.2l3.6-12.7c.2-.8,1.6-4.9-4-4.2-4.7.8-8.1,3.8-8.1,3.8.4-1.2.8-3,0-3.4-1-.4-6.7,1.4-8.1,2.6-.4,0-1,.6-.4,1.2.6.8.8,1.4.4,2.8-.8,2.4-3.2,10.7-3.8,12.3-.6,1.6-1.4,4.5,0,5.5,1,.8,5.1-1,5.7-1.4.6-.2,1.2-.6,1.4-.8.8-.8-.4-1.2.8-5.3,0-.2,1.4-4.3,2.4-7.9.8-3,3.6-4.4,4.5-4.5,1.6-.2,1.2,1.2,1,2.2-1.4,4.4-3,10.9-3.6,12.5-.6,1.6-1.6,4.7,0,5.3,1.4,1,7.7-1.8,8.3-2.2,1.2-.8,1.2-1.2.6-1.2"></path></g><g id="g58"><path id="path60" class="cls-1" d="M165.4,32.8c-.4-.2-.6-.2-.8-.4-1.2-.8-.4-3,0-4.2l3.8-12.7c.2-1.4,1-3.2,0-3.8-1.2-.4-6.9,1.4-8.3,2.6-.2,0-.8.6-.2,1.2.6.8.6,1.4.2,2.8-.6,2.4-3.4,10.9-4,12.5-.6,1.6-1.4,4.7.4,5.3,1.4,1,7.3-1.6,8.1-2.2,1.4-.6,1.4-1.2.8-1.2"></path></g><g id="g62"><path id="path64" class="cls-1" d="M164.2,8.9c.4.8,4-.8,5.7-1.8.2-.2,1-.8,1.2-1.4.4-1.4.6-2,.8-3,.2-.4.2-1-.4-1.2-.8-.2-5.5.4-6.7,2.4-.4.8-1.8,4.5-.6,4.9"></path></g><g id="g66"><path id="path68" class="cls-1" d="M217.2,22.7c-.6-2.2-4.2-2.8-5.5-1.6-.8.8-1.2,2.4-1,2.8,3.4-1,4,2,3.4,3.2-1.2,1.8-1.6,2.4-3.2,2.4h-10.5c-.2-.2-.4-.4,0-.8.6-.8,10.9-14.8,11.3-15.4.2-.4.8-1.4-.6-1.4h-11.5c-1.2,0-1.8.4-2.8,1.4-.8,1-1.8,4-2.4,5.9,0,0,0,.8,1.2-.2.2-.2.6-1,1.2-1h6.9c2.2,0-9.3,10.9-12.9,16.6-.6,1,.4,1,1,1h15c3.8,0,3.2.6,5.1-2.2,0,0,6.1-7.9,5.1-10.7"></path></g><g id="g70"><path id="path72" class="cls-1" d="M134.5,29.4l4.2-16c2.8-9.7,4.3-10.1,5.3-11.1h-6.5c-2.4,0-4.2,3.4-4.5,5.5l-2.8,10.1h-5.9s3.6-12.9,4-14.2c.2-.6.2-1.4-1-1.4s-12.7-.4-16.6,1c-1.8.6-4.3,2.2-5.1,4.5-.6,1.4-1.4,4,.4,8.7.2.6.6,1,.8,1.2.6.4,5.7-.4,5.5-.4.4,0,.6-.2.2-1-.4-1-1.6-2.8-1.8-4.5-.8-6.9,4.2-7.9,4.9-8.1,1.2-.2,2.2-.2,3.4,0,.4,0,1.4.2,1.6.6.4.8-.2,2.2-.6,3.8-.4,1.2-3.8,13.4-4.7,16.8-.6,2.6-3.2,8.1-5.7,8.9-.6.2-1.4.2-2.2,0-.8-.2-1.6-.6-2.2-1-1.6-1.6-2.6-4.7-2.8-7.1-.2-3,.4-5.1-.2-5.1-1,0-4.5,1.4-5.9,2.4,0,0,0,0,0,0-.6.4-.6.5-.6.5,0,0,0,0,0,0-.4.6-.3,2.8-.2,4.2.6,3,2.2,6.3,4.5,7.9,6.3,4.3,17.4-3.6,18.6-4.4,1.8-1.6,3-3.8,3.4-5.3.6-2,1.6-5.3,1.6-5.3h5.9s-2.4,8.9-3,11.1c-.6,1.8-1,4.7.6,4.5,5.9,0,8.3-2.2,8.5-2.4.2-.2.2-.6,0-.8-.4-.2-1.8-1.6-1-3.6"></path></g></g></svg> 