<?xml version="1.0" encoding="UTF-8"?> <svg xmlns="http://www.w3.org/2000/svg" id="Layer_1" data-name="Layer 1" version="1.1" viewBox="0 0 500 200"><defs><style> .cls-1 { fill: #fff; fill-rule: evenodd; stroke-width: 0px; } </style></defs><path class="cls-1" d="M264.9,164.6h66.6c10,0,18-4,24.7-12.2,6.4-7.9,9.7-17.3,9.7-28,0-21.6-27.7-37-38.5-37h-36.5c-2.8,0-5.1-1.3-6.9-3.3-1.8-2.2-2.8-4.9-2.8-7.9s1-6.6,2.8-9.2c2.1-2.5,4.6-4,7.6-4h68.3v-27.3h-69.6c-12.5,0-22.2,3.9-29.1,11.2-6.1,6.9-9.2,16.1-9.2,27s3.1,20.1,9.2,27.7c6.9,8.3,15.1,12.8,25,12.8h42c2.5,0,4.6.7,6.1,2.8,1.8,2.1,2.5,4.6,2.5,7.5s-1.3,6.4-3.3,8.9c-2.2,2.2-4.9,3.6-8.2,3.6h-67.4l-1-1.8-25.2-81.1-1.3-2.5c-6.1-12.5-16.3-18.6-30.4-18.6s-14.6,1.8-20.7,5.7c-6.4,3.9-10.4,9.4-12.8,16.5l-34,109.1,30.9.3,31.2-97.2c.7-3.1,2.5-4.6,4.9-4.6s2.2.4,3.1,1.3c.7,1,1.3,2.1,1.5,3.3l31.3,97.2h29.4v-.2Z"></path><path class="cls-1" d="M35.3,75.3v89H6.7v-98.7c0-12.8,3.1-21.6,9.7-27,5.1-3.9,12.8-5.8,23.4-5.8s16.1,2.5,22.7,7.5,11,11.5,13.3,19.7l18.6,65.6,3.1,8.9c.3,1.8,1.3,3.1,2.2,4,1.3,1,2.5,1.5,4,1,2.5-.3,3.9-1.8,3.9-4V35.8h29.4v98.3c0,11-2.5,19.1-7.9,25-5.1,5.8-12.8,8.9-23,8.9s-16.3-1.8-22.2-4.9c-7.2-3.6-11.8-9.2-13.7-16.5l-21.5-74.7-1.5-4.9c-.4-1.8-1.5-3.1-2.8-4.3-1.3-1-2.8-1.3-4.3-1s-2.5,1-3.6,2.5c-.7,1.3-1.3,2.8-1.3,4.6v6.6h0,0Z"></path><path class="cls-1" d="M492,164.6l-33.1-110.5-1.3-2.5c-6.1-12.5-16.3-18.6-30.4-18.6s-14.6,1.8-20.7,5.7c-6.4,3.9-10.4,9.4-12.8,16.5l-34,109.1,30.9.3,31.2-97.2c.7-3.1,2.5-4.6,4.9-4.6s2.2.4,3.1,1.3c.7,1,1.3,2.1,1.5,3.3l31.3,97.2h29.5-.1Z"></path></svg> 